<svg width="1000" height="1000" viewBox="0 0 1000 1000" fill="none" xmlns="http://www.w3.org/2000/svg">
  <style>
    .favicon {
      fill: #000;
    }
    @media (prefers-color-scheme: dark) {
      .favicon {
        fill: #fff;
      }
    }
  </style>
  <path d="M719.427 463.565L755.891 427.113C765.56 417.448 770.991 404.343 770.991 390.677C770.991 377.012 765.56 363.907 755.891 354.242L537.075 135.597C532.286 130.811 526.6 127.014 520.342 124.424C514.084 121.833 507.377 120.5 500.603 120.5C493.829 120.5 487.122 121.833 480.864 124.424C474.606 127.014 468.92 130.811 464.131 135.597L245.315 354.242C235.646 363.907 230.215 377.012 230.215 390.677C230.215 404.343 235.646 417.448 245.315 427.113C250.104 431.899 255.79 435.696 262.048 438.286C268.306 440.877 275.014 442.21 281.787 442.21C288.561 442.21 295.268 440.877 301.526 438.286C307.784 435.696 313.47 431.899 318.259 427.113L482.371 263.077C487.207 258.247 493.765 255.533 500.603 255.533C507.441 255.533 513.999 258.247 518.835 263.077L628.243 372.4C630.639 374.793 632.54 377.634 633.837 380.761C635.134 383.889 635.802 387.241 635.802 390.626C635.802 394.011 635.134 397.363 633.837 400.491C632.54 403.618 630.639 406.459 628.243 408.852L573.539 463.513C563.87 473.178 558.438 486.283 558.438 499.948C558.438 513.614 563.87 526.719 573.539 536.384C578.328 541.17 584.014 544.967 590.272 547.557C596.53 550.148 603.237 551.481 610.011 551.481C616.785 551.481 623.492 550.148 629.75 547.557C636.008 544.967 641.694 541.17 646.483 536.384L719.427 463.513V463.565Z" class="favicon"/>
  <path d="M462.92 355.462L244.106 574.105C223.965 594.231 223.965 626.861 244.106 646.987C264.247 667.112 296.903 667.112 317.044 646.987L535.859 428.343C556 408.217 556 375.587 535.859 355.462C515.717 335.336 483.062 335.336 462.92 355.462Z" class="favicon"/>
  <path d="M245.315 864.403C250.104 869.189 255.79 872.986 262.048 875.576C268.306 878.167 275.014 879.5 281.787 879.5C288.561 879.5 295.268 878.167 301.526 875.576C307.784 872.986 313.47 869.189 318.259 864.403L482.371 700.419C487.207 695.588 493.765 692.875 500.603 692.875C507.441 692.875 513.999 695.588 518.835 700.419L682.947 864.403C687.736 869.189 693.422 872.986 699.68 875.576C705.938 878.167 712.645 879.5 719.419 879.5C726.192 879.5 732.9 878.167 739.158 875.576C745.416 872.986 751.102 869.189 755.891 864.403C760.681 859.617 764.481 853.936 767.073 847.683C769.666 841.429 771 834.727 771 827.959C771 821.191 769.666 814.489 767.073 808.235C764.481 801.982 760.681 796.301 755.891 791.515L537.075 572.887C532.286 568.101 526.6 564.304 520.342 561.714C514.084 559.123 507.377 557.79 500.603 557.79C493.829 557.79 487.122 559.123 480.864 561.714C474.606 564.304 468.92 568.101 464.131 572.887L245.315 791.515C240.525 796.301 236.725 801.982 234.133 808.235C231.54 814.489 230.206 821.191 230.206 827.959C230.206 834.727 231.54 841.429 234.133 847.683C236.725 853.936 240.525 859.617 245.315 864.403Z" class="favicon"/>
</svg>
