<svg width="316" height="442" viewBox="0 0 316 442" fill="none" xmlns="http://www.w3.org/2000/svg">
  <path d="M285.27 199.71L306.48 178.49C312.104 172.864 315.264 165.235 315.264 157.28C315.264 149.325 312.104 141.696 306.48 136.07L179.2 8.79006C176.414 6.00376 173.107 3.79352 169.467 2.28557C165.827 0.777606 161.925 0.00146484 157.985 0.00146484C154.045 0.00146484 150.143 0.777606 146.503 2.28557C142.863 3.79352 139.556 6.00376 136.77 8.79006L9.49005 136.07C3.86592 141.696 0.706459 149.325 0.706459 157.28C0.706459 165.235 3.86592 172.864 9.49005 178.49C12.2759 181.276 15.5833 183.487 19.2234 184.995C22.8635 186.503 26.765 187.279 30.7051 187.279C34.6451 187.279 38.5466 186.503 42.1867 184.995C45.8268 183.487 49.1342 181.276 51.9201 178.49L147.38 83.0001C150.193 80.188 154.008 78.6083 157.985 78.6083C161.963 78.6083 165.777 80.188 168.59 83.0001L232.23 146.64C233.624 148.033 234.73 149.687 235.484 151.508C236.239 153.328 236.627 155.279 236.627 157.25C236.627 159.221 236.239 161.172 235.484 162.993C234.73 164.813 233.624 166.467 232.23 167.86L200.41 199.68C194.786 205.306 191.626 212.935 191.626 220.89C191.626 228.845 194.786 236.474 200.41 242.1C203.196 244.886 206.503 247.097 210.143 248.605C213.783 250.113 217.685 250.889 221.625 250.889C225.565 250.889 229.467 250.113 233.107 248.605C236.747 247.097 240.054 244.886 242.84 242.1L285.27 199.68V199.71Z" fill="black"/>
  <path d="M136.066 136.78L8.7868 264.059C-2.92893 275.775 -2.92893 294.77 8.7868 306.485C20.5025 318.201 39.4975 318.201 51.2132 306.485L178.492 179.206C190.208 167.491 190.208 148.496 178.492 136.78C166.777 125.064 147.782 125.064 136.066 136.78Z" fill="black"/>
  <path d="M9.49005 433.05C12.2759 435.836 15.5833 438.047 19.2234 439.555C22.8635 441.063 26.765 441.839 30.7051 441.839C34.6451 441.839 38.5466 441.063 42.1867 439.555C45.8268 438.047 49.1342 435.836 51.92 433.05L147.38 337.59C150.193 334.778 154.008 333.198 157.985 333.198C161.963 333.198 165.777 334.778 168.59 337.59L264.05 433.05C266.836 435.836 270.143 438.047 273.783 439.555C277.423 441.063 281.325 441.839 285.265 441.839C289.205 441.839 293.107 441.063 296.747 439.555C300.387 438.047 303.694 435.836 306.48 433.05C309.266 430.264 311.477 426.957 312.985 423.317C314.492 419.677 315.269 415.775 315.269 411.835C315.269 407.895 314.492 403.993 312.985 400.353C311.477 396.713 309.266 393.406 306.48 390.62L179.2 263.35C176.414 260.564 173.107 258.354 169.467 256.846C165.827 255.338 161.925 254.561 157.985 254.561C154.045 254.561 150.143 255.338 146.503 256.846C142.863 258.354 139.556 260.564 136.77 263.35L9.49005 390.62C6.70376 393.406 4.49352 396.713 2.98556 400.353C1.4776 403.993 0.701459 407.895 0.701459 411.835C0.701459 415.775 1.4776 419.677 2.98556 423.317C4.49352 426.957 6.70376 430.264 9.49005 433.05Z" fill="black"/>
</svg>
