<svg class="rd-svg-filled" viewBox="0 0 204 204" xmlns="http://www.w3.org/2000/svg">
  <path class="rd-svg-filled-main" d="M101.431 192.895C102.121 192.895 102.741 193.015 103.291 193.255C103.831 193.505 104.256 193.845 104.566 194.275C104.876 194.715 105.036 195.22 105.046 195.79H103.591C103.541 195.3 103.341 194.885 102.991 194.545C102.631 194.215 102.111 194.05 101.431 194.05C100.781 194.05 100.271 194.21 99.9008 194.53C99.5208 194.86 99.3308 195.28 99.3308 195.79C99.3308 196.19 99.4408 196.515 99.6608 196.765C99.8808 197.015 100.156 197.205 100.486 197.335C100.816 197.465 101.261 197.605 101.821 197.755C102.511 197.935 103.066 198.115 103.486 198.295C103.896 198.475 104.251 198.755 104.551 199.135C104.841 199.525 104.986 200.045 104.986 200.695C104.986 201.265 104.841 201.77 104.551 202.21C104.261 202.65 103.856 202.99 103.336 203.23C102.806 203.47 102.201 203.59 101.521 203.59C100.541 203.59 99.7408 203.345 99.1208 202.855C98.4908 202.365 98.1358 201.715 98.0558 200.905H99.5558C99.6058 201.305 99.8158 201.655 100.186 201.955C100.556 202.265 101.046 202.42 101.656 202.42C102.226 202.42 102.691 202.27 103.051 201.97C103.411 201.68 103.591 201.27 103.591 200.74C103.591 200.36 103.486 200.05 103.276 199.81C103.056 199.57 102.791 199.385 102.481 199.255C102.161 199.135 101.716 198.995 101.146 198.835C100.456 198.645 99.9008 198.455 99.4808 198.265C99.0608 198.085 98.7008 197.8 98.4008 197.41C98.1008 197.03 97.9508 196.51 97.9508 195.85C97.9508 195.34 98.0858 194.86 98.3558 194.41C98.6258 193.96 99.0258 193.595 99.5558 193.315C100.086 193.035 100.711 192.895 101.431 192.895Z" />
  <path class="rd-svg-filled-main" d="M92.7468 197.927C92.5947 198.936 92.2309 199.807 91.6554 200.539C91.0783 201.281 90.3649 201.821 89.5151 202.158C88.6555 202.494 87.7461 202.589 86.787 202.445C85.6597 202.275 84.7168 201.854 83.9583 201.184C83.1997 200.513 82.7029 199.65 82.4678 198.593L84.0845 198.837C84.2774 199.503 84.6204 200.045 85.1136 200.463C85.5969 200.88 86.2143 201.145 86.9658 201.258C87.6877 201.367 88.3607 201.296 88.9849 201.047C89.6091 200.797 90.1313 200.385 90.5515 199.811C90.9702 199.247 91.2422 198.55 91.3674 197.719C91.4911 196.899 91.4367 196.152 91.2043 195.48C90.9704 194.818 90.592 194.275 90.0692 193.853C89.5463 193.43 88.924 193.164 88.2021 193.056C87.4506 192.942 86.7833 193.009 86.2001 193.254C85.6056 193.509 85.118 193.926 84.7373 194.505L83.1206 194.262C83.6553 193.331 84.3839 192.657 85.3063 192.24C86.2273 191.833 87.2515 191.714 88.3787 191.884C89.3379 192.028 90.1795 192.383 90.9035 192.947C91.6161 193.52 92.1395 194.241 92.4736 195.11C92.8077 195.98 92.8988 196.919 92.7468 197.927Z" />
  <path class="rd-svg-filled-main" d="M73.1723 188.339L74.2916 193.158L75.8683 193.644L77.1284 189.559L78.4328 189.962L75.3511 199.952L72.126 198.957C71.3711 198.724 70.7755 198.399 70.3391 197.982C69.8931 197.562 69.6089 197.092 69.4865 196.573C69.364 196.054 69.3898 195.513 69.5637 194.949C69.7759 194.261 70.1637 193.716 70.7272 193.314C71.2811 192.91 71.9811 192.744 72.8273 192.816L71.61 187.857L73.1723 188.339ZM75.5456 194.691L73.6249 194.098C72.9177 193.88 72.3343 193.888 71.8747 194.123C71.4121 194.368 71.0908 194.782 70.911 195.365C70.7283 195.957 70.7636 196.47 71.0169 196.904C71.2607 197.335 71.741 197.661 72.4576 197.882L74.3783 198.475L75.5456 194.691Z" />
  <path class="rd-svg-filled-main" d="M62.5619 183.894C63.4359 184.315 64.1356 184.901 64.6611 185.654C65.1823 186.416 65.4789 187.263 65.5509 188.197C65.6096 189.135 65.4177 190.064 64.9751 190.983C64.5325 191.902 63.9283 192.627 63.1624 193.157C62.3832 193.692 61.5355 193.988 60.6195 194.047C59.6992 194.114 58.802 193.937 57.9281 193.516C57.0451 193.091 56.343 192.498 55.8219 191.736C55.2963 190.984 55.0021 190.143 54.9391 189.213C54.8761 188.284 55.068 187.355 55.5149 186.427C55.9618 185.499 56.5682 184.77 57.3341 184.24C58.1 183.71 58.9431 183.411 59.8635 183.344C60.7795 183.285 61.679 183.469 62.5619 183.894ZM62.0478 184.962C61.3901 184.645 60.7262 184.514 60.0561 184.568C59.377 184.619 58.7521 184.856 58.1815 185.281C57.6018 185.701 57.1319 186.285 56.7718 187.032C56.4073 187.789 56.2437 188.521 56.2811 189.227C56.305 189.938 56.5045 190.572 56.8796 191.13C57.2546 191.688 57.7755 192.128 58.4422 192.449C59.1089 192.77 59.7773 192.903 60.4474 192.848C61.1175 192.794 61.7424 192.556 62.3221 192.136C62.8884 191.721 63.3538 191.135 63.7182 190.378C64.0784 189.63 64.2464 188.901 64.2225 188.19C64.1895 187.475 63.9855 186.838 63.6104 186.28C63.2264 185.718 62.7055 185.278 62.0478 184.962Z" />
  <path class="rd-svg-filled-main" d="M50.291 178.227L47.267 176.165L47.8923 175.248L52.0442 178.079L46.1546 186.717L45.0268 185.948L50.291 178.227Z" />
  <path class="rd-svg-filled-main" d="M39.5075 169.669L36.8245 167.18L37.5795 166.366L41.2631 169.784L34.1519 177.448L33.1513 176.52L39.5075 169.669Z" />
  <path class="rd-svg-filled-main" d="M14.3327 153.068C13.7627 152.08 13.4564 151.12 13.4138 150.186C13.3575 149.248 13.5614 148.392 14.0256 147.616C14.4848 146.831 15.1777 146.171 16.1043 145.636C17.031 145.101 17.9489 144.831 18.858 144.826C19.7535 144.817 20.5931 145.071 21.3769 145.588C22.1469 146.102 22.817 146.853 23.387 147.84L25.0145 150.659L15.9602 155.886L14.3327 153.068ZM22.4127 148.403C21.7377 147.233 20.9152 146.519 19.9454 146.259C18.9668 146.004 17.919 146.199 16.8018 146.844C15.676 147.494 14.977 148.313 14.7048 149.302C14.4276 150.282 14.624 151.352 15.294 152.513L16.239 154.149L23.3577 150.039L22.4127 148.403Z" />
  <path class="rd-svg-filled-main" d="M17.3875 135.209C17.7419 136.111 17.8558 137.018 17.7291 137.927C17.5932 138.839 17.2341 139.662 16.6518 140.396C16.0565 141.124 15.2842 141.674 14.3347 142.047C13.3852 142.419 12.4494 142.539 11.5273 142.407C10.5923 142.269 9.76922 141.91 9.05805 141.33C8.33758 140.753 7.80015 140.013 7.44577 139.11C7.08774 138.198 6.97668 137.286 7.11261 136.373C7.23923 135.464 7.59552 134.647 8.18147 133.923C8.76742 133.199 9.5398 132.649 10.4986 132.272C11.4574 131.896 12.3978 131.774 13.3199 131.906C14.242 132.039 15.0632 132.393 15.7837 132.97C16.4949 133.55 17.0295 134.296 17.3875 135.209ZM16.2844 135.641C16.0177 134.962 15.6202 134.414 15.0918 133.999C14.5597 133.574 13.9402 133.323 13.2332 133.246C12.5225 133.159 11.7809 133.268 11.0082 133.571C10.2263 133.878 9.60888 134.303 9.15596 134.846C8.69007 135.383 8.40483 135.984 8.30023 136.648C8.19563 137.312 8.2785 137.989 8.54886 138.677C8.81921 139.366 9.21858 139.919 9.74698 140.334C10.2754 140.75 10.8949 141.001 11.6056 141.087C12.3033 141.168 13.0431 141.055 13.825 140.748C14.5977 140.445 15.2169 140.024 15.6828 139.487C16.145 138.94 16.4284 138.335 16.533 137.671C16.634 136.997 16.5511 136.321 16.2844 135.641Z" />
  <path class="rd-svg-filled-main" d="M1.42356 117.285L12.2907 117.913L12.6311 119.404L4.96784 123.646L13.7326 124.23L14.0844 125.704L4.52773 130.885L4.20396 129.467L12.3393 125.271L3.13586 124.787L2.7954 123.296L10.8748 118.99L1.75067 118.718L1.42356 117.285Z" />
  <path class="rd-svg-filled-main" d="M10.9095 104.212L11.0115 105.573L3.12003 111.67L11.4217 111.048L11.5238 112.409L1.08303 113.191L0.981025 111.83L8.85752 105.734L0.570757 106.355L0.46875 104.994L10.9095 104.212Z" />
  <path class="rd-svg-filled-main" d="M8.58147 75.0373L9.70751 75.2943L7.2609 86.0137L6.13485 85.7567L8.58147 75.0373Z" />
  <path class="rd-svg-filled-main" d="M23.5656 56.0604C23.2206 56.658 22.8067 57.1349 22.3238 57.4912C21.8373 57.8339 21.3304 58.0319 20.803 58.0854C20.2669 58.1339 19.7496 58.0199 19.251 57.7436L19.9785 56.4835C20.4278 56.6852 20.8872 56.7195 21.3567 56.5864C21.8225 56.4396 22.2253 56.0718 22.5653 55.4829C22.8903 54.92 23.0068 54.3983 22.9147 53.9179C22.8189 53.4238 22.5501 53.0492 22.1085 52.7942C21.7621 52.5942 21.4256 52.527 21.0991 52.5925C20.7726 52.6581 20.4705 52.8012 20.193 53.022C19.9154 53.2428 19.5716 53.5582 19.1617 53.9681C18.6608 54.4757 18.2275 54.8663 17.8616 55.1401C17.5007 55.4051 17.0807 55.5726 16.6016 55.6424C16.1189 55.6985 15.596 55.5641 15.0331 55.2391C14.5395 54.9541 14.1746 54.576 13.9386 54.1049C13.7025 53.6337 13.6106 53.113 13.6627 52.5427C13.7199 51.9637 13.9185 51.3797 14.2585 50.7908C14.7485 49.9421 15.3606 49.3718 16.095 49.0799C16.8343 48.7793 17.5748 48.7968 18.3162 49.1326L17.5662 50.4316C17.1948 50.2749 16.7867 50.2818 16.3419 50.4522C15.8884 50.6176 15.5092 50.9645 15.2042 51.4928C14.9192 51.9864 14.8166 52.4641 14.8964 52.9259C14.9676 53.3826 15.2326 53.7435 15.6916 54.0085C16.0207 54.1985 16.3417 54.2626 16.6545 54.2007C16.9724 54.1302 17.2651 53.9932 17.5327 53.7897C17.7966 53.5726 18.1403 53.2572 18.5639 52.8436C19.0735 52.341 19.5155 51.9554 19.89 51.6866C20.2559 51.4129 20.6828 51.2436 21.1705 51.1788C21.6496 51.109 22.1749 51.2391 22.7465 51.5691C23.1882 51.8241 23.5364 52.181 23.7911 52.6399C24.0458 53.0987 24.1619 53.6276 24.1394 54.2266C24.1169 54.8256 23.9256 55.4369 23.5656 56.0604Z" />
  <path class="rd-svg-filled-main" d="M23.5493 46.0236C22.7519 45.3877 22.1799 44.6373 21.8334 43.7727C21.4791 42.9018 21.3684 42.0141 21.5013 41.1096C21.6405 40.1974 22.0125 39.362 22.6173 38.6037C23.328 37.7124 24.1634 37.1059 25.1234 36.7843C26.0834 36.4626 27.0797 36.4642 28.1126 36.789L27.0931 38.0673C26.4198 37.9013 25.7787 37.9272 25.17 38.1453C24.5675 38.3555 24.0293 38.7577 23.5554 39.3519C23.1003 39.9226 22.8248 40.5407 22.729 41.2061C22.6332 41.8716 22.7287 42.5297 23.0155 43.1805C23.2945 43.8251 23.7624 44.4092 24.4191 44.933C25.068 45.4505 25.7416 45.7766 26.4399 45.9114C27.1304 46.04 27.7894 45.9835 28.4168 45.742C29.0443 45.5005 29.5856 45.0944 30.0407 44.5237C30.5146 43.9295 30.7909 43.3184 30.8695 42.6905C30.9466 42.0485 30.8293 41.4177 30.5176 40.7982L31.537 39.5199C32.0756 40.4483 32.295 41.4163 32.195 42.4237C32.0873 43.425 31.678 44.3712 30.9672 45.2625C30.3624 46.0209 29.6347 46.5725 28.7841 46.9174C27.9319 47.2483 27.0458 47.341 26.1257 47.1956C25.2056 47.0502 24.3468 46.6596 23.5493 46.0236Z" />
  <path class="rd-svg-filled-main" d="M41.6404 33.8659L36.9074 32.4257L35.6978 33.548L38.6056 36.6818L37.605 37.6102L30.4938 29.9462L32.9678 27.6506C33.5469 27.1132 34.1262 26.7599 34.7057 26.5905C35.2925 26.4144 35.8414 26.403 36.3522 26.5566C36.863 26.7102 37.319 27.0032 37.7203 27.4357C38.21 27.9635 38.488 28.5718 38.5542 29.2607C38.6278 29.9427 38.4215 30.632 37.9355 31.3285L42.839 32.7538L41.6404 33.8659ZM34.953 32.7453L36.4265 31.3782C36.9689 30.8748 37.2534 30.3654 37.2797 29.8498C37.2993 29.3269 37.1016 28.8419 36.6867 28.3947C36.265 27.9402 35.8029 27.7142 35.3004 27.7166C34.8053 27.7123 34.2828 27.9651 33.733 28.4753L32.2596 29.8424L34.953 32.7453Z" />
  <path class="rd-svg-filled-main" d="M50.7951 26.8995C49.9937 27.4459 49.1357 27.7586 48.2212 27.8374C47.3011 27.908 46.4187 27.741 45.5741 27.3366C44.7321 26.9182 44.0238 26.2876 43.4492 25.4448C42.8746 24.6021 42.5492 23.7165 42.473 22.7881C42.3994 21.8458 42.5664 20.9635 42.9739 20.141C43.3757 19.3103 43.9774 18.6217 44.7789 18.0753C45.5886 17.5232 46.4535 17.2119 47.3736 17.1413C48.2881 17.0625 49.1635 17.2281 49.9999 17.6382C50.8362 18.0484 51.5445 18.6789 52.1247 19.53C52.705 20.381 53.0332 21.2707 53.1094 22.1991C53.1856 23.1275 53.0228 24.007 52.6209 24.8377C52.2134 25.6602 51.6048 26.3475 50.7951 26.8995ZM50.1276 25.9204C50.7307 25.5092 51.1762 24.9998 51.4638 24.3921C51.7598 23.7788 51.8667 23.119 51.7844 22.4126C51.7105 21.7005 51.4397 21.0016 50.9721 20.3158C50.4989 19.6218 49.9473 19.1144 49.3171 18.7936C48.6895 18.459 48.0404 18.3146 47.3696 18.3604C46.6989 18.4062 46.0578 18.6375 45.4464 19.0544C44.835 19.4712 44.3854 19.9835 44.0977 20.5911C43.81 21.1988 43.7032 21.8586 43.7772 22.5707C43.8538 23.2689 44.1286 23.965 44.6018 24.659C45.0694 25.3448 45.6169 25.855 46.2445 26.1896C46.8803 26.5186 47.5336 26.6602 48.2043 26.6144C48.8833 26.563 49.5244 26.3316 50.1276 25.9204Z" />
  <path class="rd-svg-filled-main" d="M61.8381 19.106L65.1356 17.5179L65.6172 18.518L61.0899 20.6983L56.5536 11.2787L57.7834 10.6864L61.8381 19.106Z" />
  <path class="rd-svg-filled-main" d="M74.6413 14.0462L78.1387 12.9674L78.4659 14.028L73.6642 15.5092L70.5825 5.51868L71.8869 5.11634L74.6413 14.0462Z" />
  <path class="rd-svg-filled-main" d="M101.606 0.544922C102.746 0.544922 103.731 0.759922 104.561 1.18992C105.401 1.60992 106.041 2.21492 106.481 3.00492C106.931 3.79492 107.156 4.72492 107.156 5.79492C107.156 6.86492 106.931 7.79492 106.481 8.58492C106.041 9.36492 105.401 9.96492 104.561 10.3849C103.731 10.7949 102.746 10.9999 101.606 10.9999H98.3512V0.544922H101.606ZM101.606 9.87492C102.956 9.87492 103.986 9.51992 104.696 8.80992C105.406 8.08992 105.761 7.08492 105.761 5.79492C105.761 4.49492 105.401 3.47992 104.681 2.74992C103.971 2.01992 102.946 1.65492 101.606 1.65492H99.7162V9.87492H101.606Z" />
  <path class="rd-svg-filled-main" d="M115.545 12.12C114.586 11.9754 113.744 11.621 113.02 11.0568C112.298 10.4827 111.765 9.76018 111.421 8.88917C111.088 8.00977 110.998 7.06577 111.15 6.05716C111.302 5.04855 111.665 4.17805 112.241 3.44566C112.828 2.70487 113.551 2.1716 114.409 1.84586C115.268 1.51023 116.178 1.41471 117.137 1.55928C118.106 1.70534 118.952 2.06542 119.674 2.63951C120.398 3.20372 120.927 3.92058 121.261 4.79009C121.596 5.65961 121.686 6.60361 121.532 7.62211C121.379 8.6406 121.014 9.51605 120.439 10.2484C119.863 10.9808 119.146 11.5148 118.286 11.8505C117.428 12.1762 116.514 12.2661 115.545 12.12ZM115.722 10.9482C116.444 11.057 117.117 10.9865 117.741 10.7368C118.375 10.4885 118.902 10.0775 119.322 9.50372C119.752 8.93143 120.029 8.23492 120.153 7.41419C120.278 6.58357 120.219 5.83639 119.975 5.17264C119.743 4.50049 119.365 3.9531 118.842 3.53045C118.319 3.1078 117.692 2.84133 116.96 2.73104C116.229 2.62075 115.551 2.69048 114.926 2.94024C114.302 3.19 113.775 3.60102 113.345 4.17331C112.926 4.7372 112.654 5.43446 112.529 6.26508C112.405 7.08581 112.46 7.83224 112.692 8.50439C112.934 9.17803 113.317 9.72617 113.84 10.1488C114.373 10.573 115 10.8394 115.722 10.9482Z" />
  <path class="rd-svg-filled-main" d="M139.049 7.25649L133.072 16.3539L131.61 15.9029L131.768 7.14552L126.88 14.4439L125.428 14.0117L125.719 3.14466L127.109 3.57352L126.675 12.7167L131.696 4.98835L133.158 5.43933L132.847 14.5892L137.644 6.8232L139.049 7.25649Z" />
  <path class="rd-svg-filled-main" d="M145.628 22.0083L144.398 21.416L143.064 11.5335L139.452 19.034L138.222 18.4418L142.765 9.00863L143.995 9.60088L145.336 19.47L148.941 11.9829L150.171 12.5752L145.628 22.0083Z" />
  <path class="rd-svg-filled-main" d="M172.058 34.5794L171.272 35.426L163.212 27.9475L163.998 27.1009L172.058 34.5794Z" />
  <path class="rd-svg-filled-main" d="M181 57.0444C180.655 56.4469 180.449 55.85 180.382 55.2536C180.329 54.661 180.411 54.1229 180.628 53.6395C180.854 53.151 181.211 52.7599 181.7 52.4663L182.427 53.7263C182.028 54.0146 181.769 54.3953 181.649 54.8684C181.544 55.3452 181.661 55.8781 182.001 56.4669C182.326 57.0299 182.719 57.3915 183.181 57.552C183.657 57.7161 184.116 57.6706 184.557 57.4156C184.904 57.2156 185.13 56.9578 185.237 56.6423C185.343 56.3268 185.37 55.9936 185.318 55.6428C185.266 55.2921 185.164 54.8367 185.014 54.2767C184.825 53.5891 184.703 53.0185 184.649 52.5648C184.6 52.1197 184.665 51.6723 184.844 51.2225C185.037 50.7763 185.415 50.3907 185.978 50.0657C186.471 49.7807 186.981 49.6538 187.507 49.6849C188.033 49.7161 188.53 49.8968 188.998 50.2272C189.471 50.5662 189.877 51.0301 190.217 51.619C190.707 52.4677 190.895 53.283 190.781 54.065C190.672 54.8556 190.286 55.488 189.625 55.9623L188.875 54.6632C189.196 54.4199 189.394 54.0631 189.469 53.5927C189.553 53.1172 189.442 52.6154 189.137 52.0871C188.852 51.5935 188.489 51.2658 188.05 51.104C187.618 50.9372 187.173 50.9863 186.714 51.2513C186.385 51.4413 186.169 51.6873 186.066 51.9891C185.969 52.2997 185.941 52.6217 185.983 52.9551C186.039 53.2922 186.141 53.7476 186.287 54.3213C186.468 55.0138 186.58 55.5895 186.626 56.0482C186.68 56.5019 186.613 56.9562 186.425 57.411C186.246 57.8608 185.871 58.2507 185.299 58.5807C184.858 58.8357 184.375 58.9588 183.85 58.95C183.325 58.9412 182.809 58.7772 182.302 58.4582C181.794 58.1393 181.36 57.668 181 57.0444Z" />
  <path class="rd-svg-filled-main" d="M189.701 62.0488C190.65 61.6761 191.586 61.5559 192.508 61.6882C193.439 61.8168 194.263 62.1648 194.98 62.7321C195.701 63.3088 196.238 64.0486 196.593 64.9515C197.009 66.0127 197.117 67.0394 196.915 68.0316C196.714 69.0238 196.214 69.8859 195.416 70.6179L194.819 69.0959C195.3 68.5958 195.598 68.0277 195.713 67.3915C195.832 66.7646 195.753 66.0974 195.475 65.3899C195.209 64.7104 194.811 64.1628 194.283 63.7471C193.754 63.3314 193.137 63.085 192.43 63.008C191.732 62.9273 190.992 63.0404 190.21 63.3473C189.438 63.6506 188.818 64.0709 188.352 64.6082C187.896 65.1419 187.615 65.7408 187.511 66.4049C187.406 67.0691 187.487 67.7409 187.754 68.4204C188.032 69.1279 188.423 69.6727 188.927 70.0548C189.444 70.4426 190.049 70.6563 190.742 70.6961L191.339 72.2181C190.266 72.2204 189.318 71.9264 188.495 71.3361C187.682 70.7421 187.067 69.9146 186.651 68.8534C186.296 67.9504 186.183 67.0444 186.309 66.1353C186.449 65.2318 186.811 64.4181 187.397 63.6939C187.983 62.9698 188.751 62.4214 189.701 62.0488Z" />
  <path class="rd-svg-filled-main" d="M191.184 83.795L194.798 80.4161L194.431 78.8075L190.263 79.7588L189.959 78.428L200.152 76.1015L200.903 79.3919C201.079 80.1621 201.095 80.8405 200.952 81.427C200.811 82.0233 200.547 82.5042 200.158 82.8698C199.77 83.2354 199.288 83.4839 198.713 83.6151C198.011 83.7754 197.345 83.7119 196.715 83.4248C196.088 83.1475 195.594 82.6243 195.234 81.8551L191.548 85.389L191.184 83.795ZM195.498 78.5638L195.945 80.5234C196.11 81.2449 196.409 81.7459 196.842 82.0265C197.285 82.3049 197.804 82.3762 198.399 82.2405C199.003 82.1025 199.43 81.8154 199.679 81.379C199.931 80.9524 199.973 80.3734 199.806 79.6422L199.359 77.6826L195.498 78.5638Z" />
  <path class="rd-svg-filled-main" d="M192.64 95.2063C192.567 94.239 192.725 93.3397 193.114 92.5083C193.513 91.6762 194.099 90.9955 194.872 90.4663C195.655 89.9463 196.555 89.6482 197.572 89.572C198.59 89.4957 199.519 89.6567 200.361 90.0549C201.214 90.4623 201.895 91.0481 202.403 91.8122C202.922 92.5756 203.217 93.4409 203.29 94.4082C203.363 95.3855 203.2 96.2902 202.801 97.1223C202.412 97.9537 201.831 98.629 201.058 99.1483C200.284 99.6675 199.384 99.9656 198.357 100.043C197.33 100.12 196.395 99.959 195.553 99.5608C194.711 99.1626 194.031 98.5818 193.512 97.8184C193.004 97.0543 192.713 96.1836 192.64 95.2063ZM193.821 95.1178C193.876 95.8457 194.094 96.4862 194.477 97.0392C194.86 97.6021 195.378 98.0246 196.031 98.3066C196.684 98.5985 197.425 98.7135 198.253 98.6515C199.09 98.5887 199.806 98.3646 200.399 97.9793C201.002 97.6031 201.452 97.1131 201.748 96.5093C202.043 95.9056 202.163 95.2347 202.108 94.4968C202.053 93.7588 201.834 93.1134 201.452 92.5604C201.069 92.0074 200.551 91.585 199.898 91.293C199.255 91.0103 198.514 90.9003 197.677 90.9631C196.849 91.0251 196.133 91.2442 195.53 91.6203C194.927 92.0065 194.478 92.5014 194.182 93.1052C193.887 93.719 193.767 94.3898 193.821 95.1178Z" />
  <path class="rd-svg-filled-main" d="M193.868 108.667L193.594 112.316L192.487 112.233L192.863 107.222L203.288 108.004L203.186 109.365L193.868 108.667Z" />
  <path class="rd-svg-filled-main" d="M191.848 122.284L191.033 125.853L189.951 125.606L191.069 120.707L201.262 123.033L200.959 124.364L191.848 122.284Z" />
  <path class="rd-svg-filled-main" d="M190.058 152.387C189.488 153.375 188.809 154.12 188.022 154.624C187.238 155.141 186.394 155.393 185.49 155.379C184.581 155.374 183.663 155.104 182.736 154.569C181.81 154.034 181.117 153.374 180.658 152.589C180.202 151.818 180.002 150.964 180.059 150.026C180.119 149.103 180.434 148.147 181.004 147.16L182.631 144.341L191.685 149.568L190.058 152.387ZM181.978 147.722C181.303 148.891 181.095 149.961 181.355 150.931C181.624 151.906 182.317 152.716 183.434 153.361C184.56 154.011 185.619 154.206 186.611 153.948C187.598 153.698 188.427 152.993 189.097 151.832L190.042 150.196L182.923 146.086L181.978 147.722Z" />
  <path class="rd-svg-filled-main" d="M173.064 158.671C173.669 157.913 174.397 157.361 175.247 157.016C176.106 156.678 176.998 156.577 177.924 156.715C178.852 156.866 179.715 157.26 180.512 157.896C181.31 158.532 181.882 159.282 182.228 160.147C182.576 161.026 182.677 161.918 182.53 162.824C182.391 163.736 182.019 164.572 181.414 165.33C180.803 166.096 180.068 166.649 179.21 166.987C178.359 167.332 177.474 167.432 176.554 167.287C175.634 167.141 174.771 166.747 173.966 166.105C173.16 165.463 172.585 164.71 172.238 163.845C171.892 162.98 171.788 162.092 171.927 161.18C172.074 160.274 172.453 159.437 173.064 158.671ZM173.991 159.41C173.535 159.981 173.26 160.599 173.164 161.264C173.062 161.938 173.154 162.6 173.441 163.25C173.722 163.909 174.187 164.497 174.836 165.015C175.492 165.538 176.169 165.861 176.866 165.981C177.564 166.116 178.227 166.063 178.854 165.821C179.482 165.58 180.026 165.17 180.488 164.591C180.949 164.013 181.228 163.391 181.323 162.725C181.419 162.06 181.327 161.398 181.046 160.739C180.767 160.095 180.299 159.51 179.643 158.987C178.994 158.469 178.32 158.143 177.622 158.008C176.917 157.881 176.251 157.939 175.624 158.18C174.99 158.429 174.446 158.839 173.991 159.41Z" />
  <path class="rd-svg-filled-main" d="M165.524 181.458L160.634 171.733L161.755 170.692L169.26 175.208L165.384 167.326L166.484 166.284L175.75 171.97L174.683 172.959L166.982 168.012L171.165 176.224L170.043 177.265L162.275 172.421L166.602 180.458L165.524 181.458Z" />
  <path class="rd-svg-filled-main" d="M149.459 179.78L150.587 179.011L159.813 182.797L155.123 175.918L156.251 175.149L162.149 183.8L161.021 184.569L151.804 180.796L156.485 187.662L155.357 188.431L149.459 179.78Z" />
  <path class="rd-svg-filled-main" d="M125.357 196.383L125.017 195.279L135.523 192.039L135.864 193.142L125.357 196.383Z" />
</svg>
